# xmcd
#
# Track frame offsets: 
#        150
#        16807
#        38895
#        56797
#        70525
#        86900
#        102442
#        114642
#        128007
#        144572
#        166982
#        182277
#        202060
#        218910
#        236927
#        257820
#        272552
#        288512
#        305490
#        316170
#
# Disc length: 4392 seconds
#
# Revision: 0
# Processed by: cddbd v1.5.2PL0 Copyright (c) Steve Scherf et al.
# Submitted via: ExactAudioCopy v1.0b1
#
DISCID=28112614
DTITLE=Various Artist - Cinta 101, Disc 3
DYEAR=2009
DGENRE=Melayu
TTITLE0=Korban Percintaan (Julie Remie)
TTITLE1=Kekasih Awal Dan Akhir (Jamal Abdillah)
TTITLE2=Kepulangan (Razis Ismail)
TTITLE3=Antara Anyir Dan Jakarta (Sheila Majid)
TTITLE4=Cinta Mu Yang Menyayat Hati (Rosemaria)
TTITLE5=Kehebatan Cinta (Jamal Abdillah and Francissca Peter)
TTITLE6=Karang Di Lautan Sepi (Dayangku Intan)
TTITLE7=Untuk Mu (KRU)
TTITLE8=Terasing (Sudirman)
TTITLE9=Gelisah (Sanisah Huri)
TTITLE10=Ku Mengerti Erti Sepi (Aman Shah)
TTITLE11=Renungan Mata Mu (Halil Chik)
TTITLE12=Sonata Musim Salju (Hazami)
TTITLE13=Jauh Di Rindu (Freedom)
TTITLE14=Tiada Tangis Lagi (Ella)
TTITLE15=Derita Cinta (Jamal Abdillah)
TTITLE16=Bahgia Dan Derita (Black Dog Bone)
TTITLE17=Kucupan Azimat(Ahmad Jais)
TTITLE18=Penawar  Di Hati (Uji Rashid)
TTITLE19=Rindu Mu Rindu Ku (Broery)
EXTD=
EXTT0=
EXTT1=
EXTT2=
EXTT3=
EXTT4=
EXTT5=
EXTT6=
EXTT7=
EXTT8=
EXTT9=
EXTT10=
EXTT11=
EXTT12=
EXTT13=
EXTT14=
EXTT15=
EXTT16=
EXTT17=
EXTT18=
EXTT19=
PLAYORDER=
